<svg width="22" height="23" viewBox="0 0 22 23" fill="none" xmlns="http://www.w3.org/2000/svg">
<path d="M17.0628 18.7969C15.304 19.9125 13.2635 20.5033 11.1808 20.4999C5.78882 20.4999 1.30282 16.6199 0.361816 11.4999C0.791846 9.17066 1.96345 7.04284 3.70182 5.43394L0.572816 2.30794L1.98782 0.892944L21.7868 20.6929L20.3718 22.1069L17.0618 18.7969H17.0628ZM5.11582 6.84994C3.75682 8.08553 2.81013 9.70873 2.40382 11.4999C2.71611 12.8664 3.34308 14.1411 4.23482 15.2225C5.12656 16.304 6.25844 17.1623 7.54037 17.7293C8.8223 18.2962 10.2189 18.556 11.6189 18.4881C13.0189 18.4201 14.3838 18.0263 15.6048 17.3379L13.5768 15.3099C12.7135 15.8538 11.691 16.088 10.6771 15.9744C9.66309 15.8607 8.71786 15.4058 7.99639 14.6844C7.27492 13.9629 6.82004 13.0177 6.70638 12.0037C6.59271 10.9897 6.827 9.96725 7.37082 9.10394L5.11582 6.84994ZM12.0948 13.8279L8.85282 10.5859C8.67488 11.0389 8.633 11.5339 8.73232 12.0103C8.83164 12.4867 9.06783 12.9237 9.41193 13.2678C9.75604 13.6119 10.1931 13.8481 10.6695 13.9474C11.1459 14.0468 11.6409 14.0049 12.0938 13.8269L12.0948 13.8279ZM19.9878 16.0919L18.5568 14.6619C19.2253 13.7092 19.7012 12.6351 19.9578 11.4999C19.6861 10.3097 19.1751 9.18709 18.456 8.20044C17.7368 7.21379 16.8246 6.38367 15.7747 5.76055C14.7248 5.13743 13.5591 4.73431 12.3485 4.57571C11.138 4.4171 9.90782 4.50632 8.73282 4.83794L7.15482 3.25994C8.40182 2.76994 9.76082 2.49994 11.1808 2.49994C16.5728 2.49994 21.0588 6.37994 21.9998 11.4999C21.6934 13.1656 21.0047 14.7375 19.9878 16.0919ZM10.9038 7.00794C11.5403 6.96861 12.1779 7.06501 12.7744 7.29076C13.3708 7.51651 13.9124 7.86646 14.3634 8.31739C14.8143 8.76833 15.1642 9.30997 15.39 9.9064C15.6158 10.5028 15.7122 11.1404 15.6728 11.7769L10.9028 7.00794H10.9038Z" fill="#A8A8A8"/>
</svg>
