<svg width="22" height="19" viewBox="0 0 22 19" fill="none" xmlns="http://www.w3.org/2000/svg">
<path d="M11.1808 0.5C16.5728 0.5 21.0588 4.38 21.9998 9.5C21.0598 14.62 16.5728 18.5 11.1808 18.5C5.78882 18.5 1.30282 14.62 0.361816 9.5C1.30182 4.38 5.78882 0.5 11.1808 0.5ZM11.1808 16.5C13.2203 16.4996 15.1992 15.8068 16.7937 14.5352C18.3881 13.2635 19.5037 11.4883 19.9578 9.5C19.5021 7.5133 18.3858 5.74 16.7914 4.47003C15.1971 3.20005 13.2191 2.50853 11.1808 2.50853C9.14251 2.50853 7.16451 3.20005 5.57019 4.47003C3.97588 5.74 2.85958 7.5133 2.40382 9.5C2.85791 11.4883 3.97349 13.2635 5.56796 14.5352C7.16243 15.8068 9.14135 16.4996 11.1808 16.5ZM11.1808 14C9.98734 14 8.84275 13.5259 7.99884 12.682C7.15492 11.8381 6.68082 10.6935 6.68082 9.5C6.68082 8.30653 7.15492 7.16193 7.99884 6.31802C8.84275 5.47411 9.98734 5 11.1808 5C12.3743 5 13.5189 5.47411 14.3628 6.31802C15.2067 7.16193 15.6808 8.30653 15.6808 9.5C15.6808 10.6935 15.2067 11.8381 14.3628 12.682C13.5189 13.5259 12.3743 14 11.1808 14ZM11.1808 12C11.8439 12 12.4797 11.7366 12.9486 11.2678C13.4174 10.7989 13.6808 10.163 13.6808 9.5C13.6808 8.83696 13.4174 8.20107 12.9486 7.73223C12.4797 7.26339 11.8439 7 11.1808 7C10.5178 7 9.88189 7.26339 9.41305 7.73223C8.94421 8.20107 8.68082 8.83696 8.68082 9.5C8.68082 10.163 8.94421 10.7989 9.41305 11.2678C9.88189 11.7366 10.5178 12 11.1808 12Z" fill="#A8A8A8"/>
</svg>
