<svg width="21" height="15" viewBox="0 0 21 15" fill="none" xmlns="http://www.w3.org/2000/svg">
<path d="M19.4041 14.755C19.1694 14.7554 18.9409 14.6805 18.752 14.5414L10.5 8.45824L2.24791 14.5414C2.13206 14.627 2.00047 14.6889 1.86067 14.7237C1.72087 14.7584 1.57559 14.7653 1.43312 14.7439C1.29065 14.7226 1.15379 14.6734 1.03035 14.5992C0.9069 14.525 0.799291 14.4272 0.713662 14.3114C0.628033 14.1957 0.566061 14.0642 0.531284 13.9245C0.496507 13.7848 0.489607 13.6396 0.510977 13.4973C0.554136 13.2097 0.709827 12.9511 0.943799 12.7783L9.84791 6.20786C10.0366 6.06826 10.2652 5.99292 10.5 5.99292C10.7347 5.99292 10.9633 6.06826 11.152 6.20786L20.0561 12.7783C20.242 12.9153 20.3799 13.1074 20.4501 13.3272C20.5202 13.5471 20.5191 13.7835 20.4468 14.0027C20.3745 14.2219 20.2347 14.4126 20.0475 14.5477C19.8602 14.6828 19.635 14.7554 19.4041 14.755Z" fill="white"/>
<path d="M19.4041 9.00581C19.1695 9.00621 18.941 8.93136 18.7521 8.79226L10.5 2.7091L2.24797 8.79226C2.014 8.96507 1.72091 9.03793 1.43319 8.9948C1.14546 8.95167 0.886663 8.7961 0.713727 8.5623C0.540792 8.3285 0.467884 8.03563 0.511043 7.74811C0.554202 7.4606 0.709892 7.20199 0.943864 7.02919L9.84797 0.45871C10.0367 0.319119 10.2652 0.243774 10.5 0.243774C10.7348 0.243774 10.9634 0.319119 11.1521 0.45871L20.0562 7.02919C20.2421 7.1661 20.38 7.35822 20.4501 7.5781C20.5203 7.79797 20.5191 8.03438 20.4468 8.25356C20.3745 8.47274 20.2348 8.6635 20.0475 8.79859C19.8603 8.93368 19.6351 9.0062 19.4041 9.00581Z" fill="white"/>
</svg>
